<svg width="104" height="104" viewBox="0 0 104 104" fill="none" xmlns="http://www.w3.org/2000/svg">
<path d="M76.8121 40.5436L73.1321 36.8247C72.6268 36.3141 72.3195 35.6965 72.2441 35.0384L71.6892 30.2411C71.401 27.7485 69.0198 25.765 66.0275 25.5249L60.2683 25.0632C59.4783 24.9999 58.7368 24.7439 58.1239 24.3235L53.6594 21.2576C51.3398 19.6651 47.9725 19.6651 45.6529 21.2576L41.1884 24.3235C40.576 24.7439 39.8345 24.9999 39.044 25.0632L33.2848 25.5249C30.2925 25.765 27.9119 27.7485 27.6231 30.2411L27.0688 35.0384C26.9928 35.6965 26.6855 36.3141 26.1808 36.8247L22.5002 40.5436C20.5884 42.4758 20.5884 45.2807 22.5002 47.2129L26.1808 50.9318C26.6855 51.4424 26.9928 52.06 27.0688 52.718L27.6231 57.5154C27.9113 60.008 30.2925 61.991 33.2848 62.2315L36.8052 62.514L28.4411 79.1625C28.2145 79.6158 28.3168 80.1258 28.7084 80.4934C29.1001 80.8606 29.6951 81.006 30.2608 80.872L37.5174 79.1655C37.549 79.158 37.5795 79.1695 37.5939 79.1909L41.2279 84.695C41.4981 85.105 42.0034 85.3521 42.5596 85.3521C42.5859 85.3521 42.6122 85.3516 42.6391 85.3506C43.2269 85.3257 43.7352 85.0298 43.9678 84.5735L52.7983 66.995C53.0979 66.8516 53.3861 66.6867 53.66 66.4989L58.1245 63.4335C58.6896 63.045 59.3659 62.7994 60.0877 62.7137L68.0857 78.633L62.4258 77.302C61.3494 77.0495 60.2222 77.4425 59.6823 78.2579L56.8484 82.5502L53.0937 75.0759C52.8455 74.5823 52.165 74.3502 51.5724 74.5564C50.9804 74.7626 50.7011 75.33 50.9493 75.8231L55.3475 84.5785C55.5777 85.0298 56.0854 85.3257 56.6738 85.3506C56.7007 85.3516 56.727 85.3526 56.7533 85.3526C57.3095 85.3526 57.8148 85.105 58.085 84.695L61.7184 79.1919C61.7333 79.1695 61.7644 79.159 61.7949 79.1655L69.0503 80.872C69.6172 81.0055 70.2128 80.8606 70.6039 80.4934C70.9955 80.1258 71.0978 79.6163 70.8706 79.1615L62.5071 62.5135L66.0275 62.2311C69.0198 61.991 71.401 60.008 71.6892 57.5154L72.2441 52.7175C72.3195 52.0595 72.6268 51.4424 73.1321 50.9318L76.8121 47.2129C78.7245 45.2807 78.7245 42.4758 76.8121 40.5436V40.5436ZM42.4645 82.5502L39.63 78.2569C39.0907 77.442 37.9623 77.049 36.8865 77.302L31.2272 78.6325L39.2246 62.7137C39.947 62.7994 40.6233 63.045 41.1884 63.433L45.6529 66.4989C46.813 67.2954 48.2344 67.6934 49.6564 67.6934C49.7479 67.6934 49.8388 67.6914 49.9303 67.6879L42.4645 82.5502ZM75.0188 45.9815L71.3388 49.7005C70.5375 50.5094 70.0507 51.4887 69.9299 52.5322L69.3756 57.3296C69.1938 58.9016 67.6923 60.1524 65.805 60.3038L60.7461 60.7098C60.7263 60.7108 60.706 60.7123 60.6863 60.7148L60.0458 60.7661C58.7925 60.8667 57.6168 61.2722 56.6457 61.9392L52.1811 65.0046C50.7185 66.0093 48.5944 66.0093 47.1318 65.0046L42.6672 61.9392C41.6961 61.2722 40.5204 60.8662 39.2671 60.7661L38.6236 60.7143C38.6057 60.7123 38.5883 60.7113 38.5704 60.7103L33.5079 60.3038C31.6206 60.1524 30.1191 58.9016 29.9373 57.3296L29.383 52.5327C29.2622 51.4887 28.7754 50.5094 27.9741 49.7005L24.2941 45.9815C23.088 44.7626 23.088 42.9933 24.2941 41.775L27.9741 38.056C28.7754 37.2471 29.2622 36.2678 29.383 35.2237L29.9373 30.4264C30.1191 28.8543 31.6206 27.6036 33.5079 27.4521L39.2671 26.9904C40.5204 26.8898 41.6961 26.4843 42.6672 25.8173L47.1318 22.7519C47.8631 22.2498 48.7601 21.9983 49.6564 21.9983C50.5528 21.9983 51.4498 22.2493 52.1811 22.7519L56.6457 25.8173C57.6168 26.4843 58.7925 26.8903 60.0458 26.9904L65.805 27.4521C67.6923 27.6036 69.1938 28.8543 69.3756 30.4264L69.9299 35.2237C70.0507 36.2678 70.5375 37.2471 71.3388 38.056L75.0188 41.775C76.2243 42.9938 76.2243 44.7626 75.0188 45.9815V45.9815Z" fill="white"/>
<path d="M49.1065 28.7043C48.3309 28.7043 47.5505 28.7458 46.7856 28.8288C46.1498 28.8976 45.6998 29.3904 45.7811 29.9288C45.8624 30.4676 46.445 30.8481 47.0802 30.7798C47.7471 30.7074 48.4289 30.671 49.1065 30.671C57.8303 30.671 64.9275 36.6803 64.9275 44.0668C64.9275 51.4533 57.8297 57.462 49.1065 57.462C40.3827 57.462 33.2855 51.4528 33.2855 44.0663C33.2855 38.7977 36.9545 33.9987 42.6326 31.8398C43.2176 31.6177 43.4793 31.0353 43.2164 30.54C42.9534 30.0441 42.2656 29.823 41.6812 30.0456C35.1696 32.5213 30.9628 38.0246 30.9628 44.0663C30.9628 52.5375 39.1022 59.4287 49.1065 59.4287C59.1108 59.4287 67.2502 52.5375 67.2502 44.0663C67.2502 35.5955 59.1108 28.7043 49.1065 28.7043V28.7043Z" fill="white"/>
<path d="M37.5416 42.9239C36.1007 44.0211 36.1007 45.8066 37.5416 46.9037L42.8206 50.9238C43.519 51.4551 44.4468 51.7477 45.4343 51.7477C46.4212 51.7477 47.3497 51.4551 48.048 50.9238L59.5719 42.1488C61.0127 41.0512 61.0127 39.2661 59.5719 38.1685C58.131 37.0714 55.7859 37.0714 54.3444 38.1685L45.4343 44.9534L42.7684 42.9239C41.3275 41.8268 38.9825 41.8268 37.5416 42.9239ZM45.4343 47.1755C45.7546 47.1755 46.0618 47.0785 46.2888 46.9056L56.0539 39.4702C56.5527 39.0904 57.3636 39.0909 57.8623 39.4702C58.3611 39.8499 58.3611 40.4679 57.8623 40.8471L46.3385 49.6221C46.0972 49.8059 45.7757 49.9072 45.4343 49.9072C45.0923 49.9072 44.7714 49.8059 44.5301 49.6221L39.2505 45.6026C38.7524 45.2228 38.7524 44.6049 39.2505 44.2256C39.4998 44.0357 39.8276 43.9406 40.1553 43.9406C40.4824 43.9406 40.8101 44.0357 41.0589 44.2251L44.5793 46.9056C44.8062 47.0785 45.1134 47.1755 45.4343 47.1755Z" fill="white"/>
<circle cx="52" cy="52" r="50.5" stroke="white" stroke-width="3"/>
</svg>
