<svg width="104" height="104" viewBox="0 0 104 104" fill="none" xmlns="http://www.w3.org/2000/svg">
<circle cx="52" cy="52" r="50.5" stroke="white" stroke-width="3"/>
<g clip-path="url(#clip0)">
<path d="M51.7932 80.6324C49.6334 80.6324 47.4748 80.197 45.4757 79.3276L35.9168 75.1722C32.4586 73.6679 28.8021 72.7152 25.049 72.34L21.9099 72.0261C21.3931 71.9747 21 71.54 21 71.0208V61.174C21 60.9555 21.0711 60.7427 21.2023 60.5681C21.437 60.2542 27.0631 52.9042 35.6572 54.8166C40.4907 55.8907 44.3825 57.9008 46.7961 59.3981C48.5483 60.4849 50.6023 61.059 52.7361 61.059H62.295C63.9426 61.059 65.3908 61.9307 66.2007 63.2384L74.4334 53.7535C76.0296 51.622 78.6409 50.3167 81.3747 50.3167H81.9898C82.3315 50.3167 82.6494 50.4889 82.8356 50.7745C83.0223 51.0601 83.0518 51.4214 82.9148 51.7336L75.4688 68.6558C73.8409 72.3568 70.5261 75.1525 66.6025 76.1336L65.2925 76.4608L57.6719 79.5091C55.7966 80.2589 53.7946 80.6324 51.7932 80.6324ZM23.021 70.1063L25.2502 70.3294C29.2119 70.7254 33.0719 71.7319 36.7232 73.3194L46.2816 77.4748C49.6427 78.9362 53.5189 78.9934 56.9221 77.632L64.6051 74.5588C64.6479 74.542 64.6913 74.5282 64.7358 74.5172L66.1122 74.1726C69.4346 73.3419 72.2413 70.9751 73.6189 67.8418L80.4105 52.4071C78.6715 52.6632 77.0713 53.6003 76.0053 55.0212L66.8852 65.5323C66.8863 65.5716 66.8869 65.6104 66.8869 65.6502C66.8869 68.1818 64.8271 70.2415 62.2956 70.2415H48.9588C47.225 70.2415 45.5116 70.5196 43.8668 71.0676L43.4957 70.1253L43.1818 69.1651L43.2332 69.1483C45.0791 68.5332 47.0071 68.2205 48.9588 68.2205H62.2956C63.7125 68.2205 64.8664 67.0672 64.8664 65.6497C64.8664 64.2322 63.7131 63.0788 62.2956 63.0788H52.7367C50.226 63.0788 47.8037 62.3996 45.7318 61.1145C43.4518 59.6998 39.7762 57.8019 35.2202 56.7885C28.7119 55.345 24.0287 60.3398 23.0216 61.5313V70.1063H23.021Z" fill="white"/>
<path d="M60.7908 50.0883C59.2369 50.0883 57.4945 49.6085 55.5763 48.6494C55.3439 48.5326 55.1647 48.3303 55.0768 48.0858C54.9988 47.8667 53.1934 42.6736 56.0625 38.8332C58.1477 36.0416 62.0684 34.7842 67.7223 35.0993C68.2379 35.1276 68.649 35.5409 68.6744 36.0578C68.6946 36.459 69.1114 45.9289 64.2825 49.0818C63.2558 49.753 62.0892 50.0883 60.7908 50.0883ZM56.8649 47.0278C59.519 48.2725 61.6406 48.3945 63.1784 47.3903C66.0417 45.5201 66.6609 39.9686 66.6759 37.0793C62.2459 36.9712 59.2299 37.9695 57.6812 40.042C55.8382 42.51 56.5545 45.9046 56.8649 47.0278Z" fill="white"/>
<path d="M45.3393 36.8503C43.5478 36.8503 41.481 36.4665 39.6774 35.1455C36.618 32.9036 35.2121 28.6355 35.4977 22.4602C35.522 21.944 35.9312 21.5289 36.4475 21.4982C36.8845 21.4734 47.2291 20.9213 50.7099 26.1462C52.3309 28.5783 52.1979 31.7636 50.3162 35.6155C50.2017 35.8496 50.0017 36.0306 49.7572 36.1202C49.6213 36.1705 47.7245 36.8503 45.3393 36.8503ZM49.4086 35.1721H49.4184H49.4086ZM37.4863 23.4863C37.3991 28.4326 38.5362 31.8041 40.8711 33.5153C43.6668 35.5635 47.4841 34.6929 48.6842 34.3431C50.0572 31.3636 50.1734 28.9847 49.0287 27.2666C46.9013 24.0731 40.6624 23.4488 37.4863 23.4863Z" fill="white"/>
<path d="M53.2298 62.7239C53.198 62.7239 53.1662 62.7221 53.1338 62.7192C52.5956 62.6684 52.1927 62.203 52.2198 61.6625C52.2794 60.4739 52.3811 59.3466 52.5193 58.2783C52.9396 51.1283 52.7228 34.4778 42.1955 29.8715C41.6845 29.6477 41.4509 29.0523 41.6747 28.5407C41.8978 28.0302 42.495 27.7972 43.0055 28.0204C49.2091 30.7346 53.1118 37.492 54.2894 47.562C54.3952 48.4644 54.4744 49.3541 54.5334 50.2207C57.306 43.2146 61.5475 40.7392 61.8001 40.5976C62.2857 40.323 62.902 40.4976 63.176 40.9826C63.4483 41.4682 63.2772 42.0827 62.7933 42.3567C62.6864 42.4192 56.1821 46.3225 54.5496 58.3598C54.4253 60.419 54.2461 61.7318 54.2293 61.8521C54.1594 62.3562 53.7287 62.7239 53.2298 62.7239Z" fill="white"/>
</g>
<defs>
<clipPath id="clip0">
<rect width="62" height="62" fill="white" transform="translate(21 20)"/>
</clipPath>
</defs>
</svg>
