<svg width="104" height="104" viewBox="0 0 104 104" fill="none" xmlns="http://www.w3.org/2000/svg">
<path d="M42.4294 68.6506C42.2735 64.1124 38.4899 60.3427 33.4332 59.6873C32.2953 59.5396 31.1583 59.853 30.314 60.547L27.4354 62.9129C25.7876 64.2671 25.8159 66.6027 27.5197 67.9214C29.9522 69.8037 31.7971 72.2298 32.8552 74.9373C33.8693 77.5324 37.5451 78.3402 39.8064 76.482C43.4654 73.4743 42.2911 69.7039 42.4294 68.6506V68.6506ZM38.3357 75.0691C37.2236 75.9833 35.4064 75.5978 34.9016 74.306C33.7199 71.2821 31.6592 68.5725 28.9424 66.4701C28.2196 65.9108 28.1919 64.9128 28.9063 64.3255L31.785 61.9597C32.1522 61.658 32.6414 61.5294 33.1206 61.5916C37.1362 62.1121 40.1408 65.1056 40.2645 68.7094C40.1357 69.8372 41.1442 72.7608 38.3357 75.0691Z" fill="white"/>
<path d="M86.0898 24.2681L81.6755 21.5109C80.6707 20.8831 79.3016 20.9237 78.3458 21.61L68.0229 29.0236C67.5577 29.3577 67.4855 29.9635 67.8615 30.3768C68.2376 30.79 68.9195 30.8544 69.3846 30.5202L79.7073 23.1067C79.9148 22.9578 80.2114 22.9489 80.4297 23.0851L84.844 25.8424C85.0311 25.9594 85.1281 26.1646 85.0909 26.3652L84.6629 28.673C84.6155 28.9287 84.4423 29.1477 84.1874 29.2739L81.46 30.6247C80.6249 31.0383 80.0569 31.756 79.9018 32.5939L79.3944 35.3308C79.347 35.5866 79.1738 35.8056 78.9189 35.9318L76.1916 37.2825C75.3569 37.6958 74.7888 38.4136 74.6334 39.2516L74.1262 41.9884C74.0788 42.2442 73.9054 42.4633 73.6505 42.5894L70.9237 43.9397C70.0885 44.3533 69.5204 45.0712 69.3654 45.909L68.8584 48.6452C68.811 48.901 68.6376 49.1201 68.3828 49.2463L65.6565 50.5961C64.8213 51.0095 64.2531 51.7274 64.098 52.5654L63.5906 55.3024C63.5432 55.558 63.37 55.777 63.1151 55.9031L60.3884 57.2534C59.5532 57.6669 58.985 58.3848 58.8299 59.2227L58.3228 61.9592C58.2755 62.215 58.102 62.4341 57.8472 62.5603L55.1206 63.9103C54.2854 64.3239 53.7174 65.0418 53.5623 65.8797L53.0552 68.6162C53.0078 68.8719 52.8345 69.0909 52.5795 69.2171L50.6745 70.1603C50.1231 70.4334 49.4749 70.5413 48.8497 70.4642L48.4906 70.4199L48.5995 59.8452C48.6104 58.7812 48.1344 57.7364 47.2934 56.9788L40.8991 51.2185C40.849 51.1734 40.7976 51.1299 40.7454 51.0875L65.4721 33.33C65.9373 32.996 66.0095 32.3902 65.6335 31.9768C65.2575 31.5637 64.5757 31.4993 64.1104 31.8334L38.5717 50.1744C37.4313 50.0253 36.2292 50.2964 35.2963 51.0022L17.6224 64.3724C15.9343 65.6495 15.553 67.832 16.7366 69.4945C17.8119 71.0048 19.9029 71.684 21.8207 71.1461C22.1514 71.0534 22.4931 71.1473 22.6718 71.3798L30.3254 81.3403C30.4926 81.5579 30.5841 81.812 30.5902 82.0753L30.624 83.5407C30.6403 84.2454 30.9187 84.9392 31.4077 85.4942C32.7616 87.0299 35.3282 87.1854 36.9015 85.8068L39.683 83.3696C40.1088 82.9964 40.1136 82.3871 39.6935 82.0088C39.2735 81.6305 38.5877 81.6263 38.1619 81.9994L35.3805 84.4367C34.7252 85.0109 33.6687 84.9379 33.113 84.3078C32.9112 84.0786 32.7962 83.7923 32.7896 83.5015L32.7558 82.036C32.7411 81.3982 32.5193 80.7825 32.1144 80.2555L24.4605 70.2946C23.7394 69.3562 22.4166 68.9607 21.1686 69.3106C20.1873 69.5859 19.1172 69.2384 18.5671 68.4656C17.9623 67.6161 18.1547 66.4969 19.0265 65.8376L36.7005 52.4673C37.4753 51.881 38.6422 51.9262 39.3569 52.5701L45.7513 58.3304C46.1907 58.7261 46.4393 59.272 46.4337 59.8279L46.2889 73.9095C46.2824 74.5397 46.0007 75.1305 45.4956 75.5731L41.7852 78.8242C41.3594 79.1974 41.3546 79.8066 41.7747 80.1849C42.1946 80.5633 42.8803 80.5675 43.3063 80.1943L47.0165 76.9432C47.9322 76.1409 48.4429 75.0697 48.4546 73.927L48.4708 72.3603L48.5522 72.3703C48.7817 72.3987 49.0127 72.4127 49.2437 72.4127C50.1088 72.4127 50.9716 72.2165 51.7292 71.8413L53.6342 70.8981C54.4694 70.4845 55.0374 69.7666 55.1925 68.9286L55.6996 66.1922C55.747 65.9365 55.9202 65.7175 56.1752 65.5913L58.9018 64.2413C59.7367 63.8279 60.3048 63.1102 60.4601 62.2719L60.9673 59.5354C61.0146 59.2797 61.1879 59.0607 61.4429 58.9345L64.1696 57.5842C65.0048 57.1708 65.5728 56.453 65.7279 55.615L66.2353 52.8781C66.2827 52.6224 66.456 52.4034 66.711 52.2772L69.4371 50.9274C70.2722 50.5141 70.8403 49.7962 70.9957 48.9579L71.5027 46.2215C71.55 45.966 71.7233 45.7469 71.9783 45.6206L74.7052 44.2704C75.5401 43.857 76.1081 43.1393 76.2635 42.3011L76.7708 39.5644C76.8181 39.3085 76.9914 39.0896 77.2462 38.9633L79.9736 37.6128C80.8083 37.1993 81.3764 36.4817 81.5317 35.6436L82.0391 32.9064C82.0865 32.6507 82.2598 32.4317 82.5146 32.3055L85.2419 30.9547C86.0768 30.5414 86.6449 29.8237 86.8002 28.9858L87.2282 26.6778C87.3996 25.7529 86.9527 24.807 86.0898 24.2681V24.2681Z" fill="white"/>
<circle cx="52" cy="52" r="50.5" stroke="white" stroke-width="3"/>
</svg>
